<svg id="Layer_1" data-name="Layer 1" xmlns="http://www.w3.org/2000/svg" viewBox="0 0 439.78 439.78"><defs><style>.cls-1{fill:#273d8f;}.cls-2{fill:#fff;}</style></defs><title>Logo_premia-02</title><rect class="cls-1" x="72.4" y="66.4" width="310.97" height="310.97" transform="translate(-98.15 224.13) rotate(-45)"/><polygon class="cls-2" points="332.01 160.56 339.81 173.18 327.19 165.49 322.14 179.83 317.21 165.84 299.2 178.45 311.94 160.44 297.94 155.51 312.28 150.58 304.48 137.96 317.1 145.65 322.14 131.31 327.08 145.3 345.09 132.57 332.35 150.69 346.35 155.51 332.01 160.56"/><path class="cls-2" d="M120.11,196.17v51a3.62,3.62,0,0,1-3.67,3.67h-7.69a3.62,3.62,0,0,1-3.67-3.67V205.57H80.77v41.64a3.62,3.62,0,0,1-3.67,3.67H69.41a3.62,3.62,0,0,1-3.67-3.67v-51a3.7,3.7,0,0,1,3.67-3.67h47A3.56,3.56,0,0,1,120.11,196.17Z" transform="translate(-8 -2)"/><path class="cls-2" d="M390.94,192.38H367.43c-13,0-20.42,8.6-20.42,19.5,0,9.18,4.47,14.11,9.41,17.09,0,.11-10.09,18.47-10.09,18.47a2.28,2.28,0,0,0,2.06,3.44h12a2,2,0,0,0,1.84-1.15l9.18-18.47h7.69v16.4a3.21,3.21,0,0,0,3.21,3.21h8.83a3.21,3.21,0,0,0,3.21-3.21v-52A3.51,3.51,0,0,0,390.94,192.38Zm-11.81,25.69H369.6c-3.67,0-6.77-1.84-7.11-5.51a6.56,6.56,0,0,1,6.65-7.11h10.09v12.62Z" transform="translate(-8 -2)"/><path class="cls-2" d="M337.72,195.25v52.88a2.72,2.72,0,0,1-2.75,2.75h-9.52a2.82,2.82,0,0,1-2.87-2.75V195.25a2.75,2.75,0,0,1,2.87-2.75H335A2.65,2.65,0,0,1,337.72,195.25Z" transform="translate(-8 -2)"/><path class="cls-2" d="M310.42,196.05v52.19a2.6,2.6,0,0,1-2.64,2.64H298a2.6,2.6,0,0,1-2.64-2.64V213s0-.11-.11,0l-13.88,35.56a3.6,3.6,0,0,1-3.33,2.29h-1.84a3.6,3.6,0,0,1-3.33-2.29L259.14,213H259v34.3a3.57,3.57,0,0,1-3.56,3.56h-8a3.57,3.57,0,0,1-3.56-3.56V195.94a3.62,3.62,0,0,1,3.67-3.67h14.91a3.49,3.49,0,0,1,3.33,2.29L277,223.93h.11l11.36-29.37a3.6,3.6,0,0,1,3.33-2.29h14.91A3.8,3.8,0,0,1,310.42,196.05Z" transform="translate(-8 -2)"/><path class="cls-2" d="M205.69,205.57v9.06h24.43a2.79,2.79,0,0,1,2.75,2.75v7.69a2.79,2.79,0,0,1-2.75,2.75H205.69v9.86h25a2.72,2.72,0,0,1,2.75,2.75v6.65a3.82,3.82,0,0,1-3.79,3.79H194.33a3.82,3.82,0,0,1-3.79-3.79V196.4a3.9,3.9,0,0,1,4-3.9h35a4,4,0,0,1,4,3.9v6.42a2.79,2.79,0,0,1-2.75,2.75Z" transform="translate(-8 -2)"/><path class="cls-2" d="M161.64,192.38H136.06a3.62,3.62,0,0,0-3.67,3.67v51.73a3.08,3.08,0,0,0,3.1,3.1h8.95a3.08,3.08,0,0,0,3.1-3.1V231.27h14.22c13.19,0,20.3-8.83,20.3-19.39S174.83,192.38,161.64,192.38Zm4.93,20.76c-.57,3.21-3.33,4.93-6.88,4.93H147.53v-12.5H159.8A6.66,6.66,0,0,1,166.57,213.15Z" transform="translate(-8 -2)"/></svg>