<?xml version="1.0" encoding="utf-8"?>
<!-- Generator: Adobe Illustrator 21.0.2, SVG Export Plug-In . SVG Version: 6.00 Build 0)  -->
<svg version="1.1" id="Layer_1" xmlns="http://www.w3.org/2000/svg" xmlns:xlink="http://www.w3.org/1999/xlink" x="0px" y="0px"
	 viewBox="0 0 311 311" style="enable-background:new 0 0 311 311;" xml:space="preserve">
<style type="text/css">
	.st0{fill:#273D8F;}
	.st1{fill:#FFFFFF;}
</style>
<title>Logo_premia-02</title>
<rect x="0" y="0.1" class="st0" width="311" height="311"/>
<polygon class="st1" points="276.8,192.9 273.4,207.3 269.9,193 256.2,199.5 262.6,186.2 240.9,182.3 262.7,178.6 256.2,165.2 
	269.9,171.9 273.3,157.4 276.8,171.8 290.5,165.2 284.1,178.6 305.8,182.3 284,186.1 290.5,199.5 "/>
<path class="st1" d="M97.5,61.2L61.4,97.2c-1.4,1.4-3.7,1.5-5.1,0.1c0,0,0,0-0.1-0.1l-5.4-5.4c-1.4-1.4-1.5-3.7-0.1-5.1
	c0,0,0,0,0.1-0.1l29.4-29.4L63,40L33.6,69.4c-1.4,1.4-3.7,1.5-5.1,0.1c0,0,0,0-0.1-0.1L23,64c-1.4-1.4-1.5-3.7-0.1-5.1
	c0,0,0,0,0.1-0.1L59,22.7c1.4-1.4,3.8-1.4,5.2,0L97.5,56c1.4,1.3,1.5,3.6,0.2,5C97.6,61.1,97.6,61.1,97.5,61.2z"/>
<path class="st1" d="M291.7,250l-16.6-16.6c-9.2-9.2-20.5-8.4-28.2-0.7c-6.5,6.5-6.8,13.1-5.4,18.7c-0.1,0.1-20.2,5.9-20.2,5.9
	c-1.2,0.3-2,1.6-1.6,2.8c0.1,0.4,0.3,0.8,0.7,1.1l8.5,8.5c0.5,0.6,1.4,0.8,2.1,0.5l19.6-6.6l5.4,5.4l-11.6,11.6
	c-1.3,1.3-1.3,3.3,0,4.5l6.2,6.2c1.3,1.3,3.3,1.3,4.5,0l36.8-36.8C293,253.4,292.9,251.3,291.7,250z M265.2,259.8l-6.7-6.7
	c-2.6-2.6-3.5-6.1-1.1-8.9c2.3-2.8,6.5-3.1,9.2-0.8c0.2,0.1,0.3,0.3,0.5,0.5l7.1,7.1L265.2,259.8L265.2,259.8z"/>
<path class="st1" d="M252,214.4l-37.4,37.4c-1.1,1.1-2.8,1.1-3.8,0c0,0,0,0,0,0L204,245c-1.1-1.1-1.2-2.9-0.1-4l37.4-37.4
	c1.1-1.1,2.8-1.1,3.9,0c0,0,0.1,0.1,0.1,0.1l6.8,6.8c1.1,1,1.1,2.7,0.1,3.7C252.1,214.3,252.1,214.3,252,214.4z"/>
<path class="st1" d="M232.2,195.6l-36.9,36.9c-1,1-2.6,1.1-3.7,0.1c0,0,0,0-0.1-0.1l-6.9-6.9c-1-1-1.1-2.6-0.1-3.7c0,0,0,0,0.1-0.1
	l24.9-24.9c0,0,0.1-0.1-0.1-0.1l-35,15.3c-1.4,0.6-2.9,0.3-4-0.7l-1.3-1.3c-1-1-1.3-2.6-0.7-4l15.4-34.9l-0.1-0.1l-24.3,24.3
	c-1.4,1.4-3.6,1.4-5,0l-5.7-5.7c-1.4-1.4-1.4-3.6,0-5l36.3-36.3c1.4-1.4,3.7-1.5,5.1-0.1c0,0,0,0,0.1,0.1l10.5,10.5
	c1.1,1,1.4,2.6,0.7,4l-12.8,28.7l0.1,0.1l28.8-12.7c1.4-0.6,2.9-0.3,4,0.7l10.5,10.5C233.6,191.8,233.6,194.2,232.2,195.6z"/>
<path class="st1" d="M151.4,128.3l-6.4,6.4l17.3,17.3c1.1,1.1,1.1,2.8,0,3.9l-5.4,5.4c-1.1,1.1-2.8,1.1-3.9,0l-17.3-17.3l-7,7
	l17.7,17.7c1.1,1.1,1.1,2.8,0,3.8c0,0,0,0,0,0l-4.7,4.7c-1.5,1.5-3.9,1.5-5.4,0l-25-25c-1.5-1.5-1.5-3.9,0-5.4l35.8-35.8
	c1.5-1.5,4-1.5,5.5,0c0,0,0,0,0.1,0.1l24.7,24.7c1.5,1.5,1.6,4,0.1,5.6l-4.5,4.5c-1.1,1.1-2.8,1.1-3.9,0L151.4,128.3z"/>
<path class="st1" d="M129.5,87.8l-18.1-18.1c-1.4-1.4-3.7-1.5-5.1-0.1c0,0,0,0-0.1,0.1l-36.6,36.6c-1.2,1.2-1.2,3.1,0,4.4
	c0,0,0,0,0,0l6.3,6.3c1.2,1.2,3.1,1.2,4.4,0c0,0,0,0,0,0l11.7-11.7l10.1,10.1c9.3,9.3,20.6,8.1,28.1,0.6
	C137.7,108.6,138.9,97.2,129.5,87.8z M118.4,106c-2.7,1.9-5.8,1.1-8.4-1.4l-8.6-8.6l8.8-8.8l8.7,8.7c2.7,2.5,2.8,6.7,0.2,9.4
	C118.9,105.6,118.6,105.8,118.4,106L118.4,106z"/>
</svg>
