<?xml version="1.0" encoding="utf-8"?>
<!-- Generator: Adobe Illustrator 21.0.2, SVG Export Plug-In . SVG Version: 6.00 Build 0)  -->
<svg version="1.1" id="Layer_1" xmlns="http://www.w3.org/2000/svg" xmlns:xlink="http://www.w3.org/1999/xlink" x="0px" y="0px"
	 viewBox="0 0 311 311" style="enable-background:new 0 0 311 311;" xml:space="preserve">
<style type="text/css">
	.st0{fill:#273D8F;}
	.st1{fill:#FFFFFF;}
</style>
<rect x="0" y="0.1" class="st0" width="311" height="311"/>
<polygon class="st1" points="192.9,34.3 207.3,37.7 192.9,41.2 199.5,54.9 186.1,48.5 182.3,70.2 178.6,48.4 165.2,54.8 171.9,41.2 
	157.4,37.8 171.8,34.3 165.2,20.6 178.6,27 182.3,5.3 186.1,27.1 199.4,20.6 "/>
<path class="st1" d="M61.1,213.6l36.1,36.1c1.4,1.4,1.5,3.7,0.1,5.1c0,0,0,0-0.1,0.1l-5.4,5.4c-1.4,1.4-3.7,1.5-5.1,0.1
	c0,0,0,0-0.1-0.1l-29.4-29.4L40,248l29.4,29.4c1.4,1.4,1.5,3.7,0.1,5.1c0,0,0,0-0.1,0.1l-5.4,5.4c-1.4,1.4-3.7,1.5-5.1,0.1
	c0,0,0,0-0.1-0.1l-36.1-36.1c-1.4-1.4-1.4-3.8,0-5.2l33.2-33.2c1.3-1.4,3.6-1.5,5-0.2C61,213.5,61.1,213.5,61.1,213.6z"/>
<path class="st1" d="M250,19.4L233.3,36c-9.2,9.2-8.4,20.5-0.7,28.2c6.5,6.5,13.1,6.8,18.7,5.4c0.1,0.1,5.9,20.2,5.9,20.2
	c0.3,1.2,1.6,2,2.8,1.6c0.4-0.1,0.8-0.3,1.1-0.7l8.5-8.5c0.6-0.5,0.8-1.4,0.5-2.1l-6.6-19.6l5.4-5.4l11.6,11.6
	c1.3,1.3,3.3,1.3,4.5,0l6.2-6.2c1.3-1.3,1.3-3.3,0-4.5l-36.8-36.8C253.3,18.1,251.3,18.1,250,19.4z M259.8,45.9l-6.7,6.7
	c-2.6,2.6-6.1,3.5-8.9,1.1c-2.8-2.3-3.1-6.5-0.8-9.2c0.1-0.2,0.3-0.3,0.5-0.5l7.1-7.1L259.8,45.9L259.8,45.9z"/>
<path class="st1" d="M214.4,59.1l37.4,37.4c1.1,1.1,1.1,2.8,0,3.8c0,0,0,0,0,0l-6.7,6.7c-1.1,1.1-2.9,1.2-4,0.1l-37.4-37.4
	c-1.1-1.1-1.1-2.8,0-3.9c0,0,0.1-0.1,0.1-0.1l6.8-6.8c1-1.1,2.7-1.1,3.7-0.1C214.3,59,214.3,59,214.4,59.1z"/>
<path class="st1" d="M195.6,78.9l36.9,36.9c1,1,1.1,2.6,0.1,3.7c0,0,0,0-0.1,0.1l-6.9,6.9c-1,1-2.6,1.1-3.7,0.1c0,0,0,0-0.1-0.1
	L197,101.6c0,0-0.1-0.1-0.1,0.1l15.3,35c0.6,1.4,0.3,2.9-0.7,4l-1.3,1.3c-1,1-2.6,1.3-4,0.7l-34.9-15.4l-0.1,0.1l24.3,24.3
	c1.4,1.4,1.4,3.6,0,5l-5.7,5.7c-1.4,1.4-3.6,1.4-5,0l-36.3-36.3c-1.4-1.4-1.5-3.7-0.1-5.1c0,0,0,0,0.1-0.1l10.5-10.5
	c1-1.1,2.6-1.4,4-0.7l28.7,12.8l0.1-0.1L179,93.4c-0.6-1.4-0.3-2.9,0.7-4l10.5-10.5C191.8,77.5,194.2,77.5,195.6,78.9z"/>
<path class="st1" d="M128.3,159.7l6.4,6.4l17.3-17.3c1.1-1.1,2.8-1.1,3.9,0l5.4,5.4c1.1,1.1,1.1,2.8,0,3.9L144,175.4l7,7l17.7-17.7
	c1.1-1.1,2.8-1.1,3.8,0c0,0,0,0,0,0l4.7,4.7c1.5,1.5,1.5,3.9,0,5.4l-25,25c-1.5,1.5-3.9,1.5-5.4,0l-35.8-35.8c-1.5-1.5-1.5-4,0-5.5
	c0,0,0,0,0.1-0.1l24.7-24.7c1.5-1.5,4-1.6,5.6-0.1l4.5,4.5c1.1,1.1,1.1,2.8,0,3.9L128.3,159.7z"/>
<path class="st1" d="M87.8,181.5l-18.1,18.1c-1.4,1.4-1.5,3.7-0.1,5.1c0,0,0,0,0.1,0.1l36.6,36.6c1.2,1.2,3.1,1.2,4.4,0c0,0,0,0,0,0
	l6.3-6.3c1.2-1.2,1.2-3.1,0-4.4c0,0,0,0,0,0L105.3,219l10.1-10.1c9.3-9.3,8.1-20.6,0.6-28.1C108.6,173.4,97.1,172.2,87.8,181.5z
	 M106,192.7c1.9,2.7,1.1,5.8-1.4,8.4l-8.6,8.6l-8.8-8.8l8.7-8.7c2.5-2.7,6.7-2.8,9.4-0.2C105.5,192.2,105.8,192.4,106,192.7
	L106,192.7z"/>
</svg>
