<?xml version="1.0" encoding="utf-8"?>
<!-- Generator: Adobe Illustrator 21.0.2, SVG Export Plug-In . SVG Version: 6.00 Build 0)  -->
<svg version="1.1" id="Layer_1" xmlns="http://www.w3.org/2000/svg" xmlns:xlink="http://www.w3.org/1999/xlink" x="0px" y="0px"
	 viewBox="0 0 1056.4 1039.7" style="enable-background:new 0 0 1056.4 1039.7;" xml:space="preserve">
<style type="text/css">
	.sun-svg0{fill:#ffffff;}
	.sun-svg1{fill:#ffffff;}
</style>
<path class="sun-svg0" d="M873.2,597c39.9,69.1,79.5,137.8,119.5,207.2c-80.1,0-159.3,0-239.1,0c-14,78.3-27.9,156.3-42.1,235.4
	C650,988.2,589.3,937.3,528.2,886.1c-61,51.1-121.7,102-183.3,153.5c-14.1-78.9-28-156.8-42-235.1c-79.5,0-158.8,0-239.4,0
	c40.2-69.6,79.8-138.4,119.7-207.5C122.2,545.6,61.4,494.4,0,442.7c16.1-5.9,31.5-11.5,47-17.2c57.7-21,115.3-42.1,173-63
	c3.8-1.4,4.6-2.9,3.9-6.8c-8.7-49.6-17.1-99.3-25.7-149c-4.5-26.1-9.1-52.1-13.6-78.2c-0.1-0.8-0.1-1.6-0.3-3.1
	c10.8,3.9,21.2,7.7,31.6,11.5c62.5,22.8,125,45.5,187.5,68.5c4.5,1.7,6.2,0.5,8.4-3.3c37.7-65.7,75.6-131.3,113.4-196.9
	c0.8-1.4,1.7-2.8,3.1-5.2c40.2,69.3,80.1,138,120.2,207.2c74.7-27.2,149.3-54.4,224.6-81.8c-3.1,18-6.1,35.3-9.2,52.6
	c-8.5,48.7-17.1,97.3-25.6,146c-1.8,10.5-3.6,21-5.6,31.4c-0.8,3.9-0.2,5.7,4,7.2c71.9,26.1,143.8,52.3,215.7,78.5
	c1.1,0.4,2.2,0.8,4.1,1.6C995.2,494.3,934.4,545.5,873.2,597z M528.5,849.2c170.3,2.8,310.3-141.6,313.5-306.6
	c3.3-174.8-141.9-320.2-313.5-320.2c-172.3,0-313.2,144.7-313.8,312.4C213.8,706.3,359,852.4,528.5,849.2z"/>
<path class="sun-svg1" d="M528.5,849.2C359,852.4,213.8,706.3,214.5,534.8c0.7-167.7,141.6-312.4,313.8-312.4
	c171.6,0,316.9,145.4,313.5,320.2C838.7,707.6,698.8,852,528.5,849.2z"/>
</svg>
